<?xml version="1.0" encoding="utf-8"?>
<!-- Generator: Adobe Illustrator 26.2.1, SVG Export Plug-In . SVG Version: 6.00 Build 0)  -->
<svg version="1.1" id="Layer_1" xmlns="http://www.w3.org/2000/svg" xmlns:xlink="http://www.w3.org/1999/xlink" x="0px" y="0px"
	 viewBox="0 0 64 64" style="enable-background:new 0 0 64 64;" xml:space="preserve">
<g id="Layer_41">
	<path d="M32,2.8C15.8,2.8,2.8,15.8,2.8,32S15.8,61.2,32,61.2S61.2,48.2,61.2,32C61.2,15.9,48.1,2.8,32,2.8z M32,5.2
		c14.8,0,26.7,11.9,26.7,26.7c0,6.1-2,11.9-5.8,16.7c-2.8-6.4-8.4-11.2-15.1-12.9c4.9-3.2,6.3-9.8,3-14.7s-9.8-6.3-14.7-3
		s-6.3,9.8-3,14.7c0.8,1.2,1.8,2.2,3,3c-6.8,1.8-12.3,6.5-15.1,12.9c-9.2-11.5-7.3-28.4,4.3-37.6C20.1,7.3,25.9,5.2,32,5.2z
		 M32,34.9c-4.5,0-8.1-3.6-8.1-8.1s3.6-8.1,8.1-8.1s8.1,3.6,8.1,8.1l0,0C40.1,31.3,36.5,34.9,32,34.9z M32,58.8
		c-7.2,0-14-2.9-19.1-8C16.8,40.2,28.5,34.8,39,38.7c5.6,2.1,10,6.5,12.1,12.1C46,55.9,39.2,58.8,32,58.8z"/>
</g>
</svg>
